# xmcd CD database file
#
# Track frame offsets:
#	200
#	20461
#	47209
#	64985
#	85267
#
# Disc length: 1199 seconds
#
# Revision: 0
# Processed by: cddbd v1.5.2PL0 Copyright (c) Steve Scherf et al.
# Submitted via: CDex 1.51
#
DISCID=3d04ad05
DTITLE=Duh Puiiuh-Zeikargs - Buhaarduh Liefduh
DYEAR=2000
DGENRE=Salsa
TTITLE0=Buhaarduh Liefduh
TTITLE1=Duh Pluhris Boegie
TTITLE2=Van duh Rep, In duh Gaut
TTITLE3=Duh-Haag Meh Stat
TTITLE4=Buhdank Hor!
EXTD=YEAR: 2000
EXTT0=
EXTT1=
EXTT2=
EXTT3=
EXTT4=
PLAYORDER=
